<svg xmlns="http://www.w3.org/2000/svg" viewBox="0 0 1150 767"><defs><style>.cls-1{font-size:26px;}.cls-1,.cls-14,.cls-15{fill:#fff;}.cls-1,.cls-12,.cls-15,.cls-19{font-family:MyriadPro-Regular, Myriad Pro;}.cls-2{letter-spacing:-0.04em;}.cls-3{letter-spacing:0em;}.cls-4{letter-spacing:0em;}.cls-5{letter-spacing:-0.01em;}.cls-6{letter-spacing:0.01em;}.cls-7{letter-spacing:0em;}.cls-8{font-size:18px;}.cls-11,.cls-12,.cls-19,.cls-8{fill:#6b6b6b;}.cls-9{letter-spacing:0em;}.cls-10{letter-spacing:-0.01em;}.cls-12,.cls-15{font-size:12px;letter-spacing:0em;}.cls-13{letter-spacing:0em;}.cls-16{fill:#ff8327;}.cls-17{opacity:0.4;}.cls-18{fill:none;stroke:#6b6b6b;stroke-miterlimit:10;}.cls-19{font-size:14px;}.cls-20{letter-spacing:-0.01em;}.cls-21{letter-spacing:-0.01em;}.cls-22{letter-spacing:0.01em;}.cls-23{letter-spacing:-0.03em;}.cls-24{letter-spacing:0em;}.cls-25{letter-spacing:0em;}</style></defs><title>Tripulacion_cantidad</title><g id="Capa_2" data-name="Capa 2"><rect width="1150" height="767"/></g><g id="Capa_1" data-name="Capa 1"><text class="cls-1" transform="translate(283.94 69.34)"><tspan class="cls-2">T</tspan><tspan class="cls-3" x="11.75" y="0">r</tspan><tspan x="20.36" y="0">ipula</tspan><tspan class="cls-4" x="74.23" y="0">n</tspan><tspan class="cls-5" x="88.55" y="0">t</tspan><tspan x="97" y="0">es de las </tspan><tspan class="cls-6" x="193.51" y="0">M</tspan><tspan x="214.73" y="0">isiones </tspan><tspan class="cls-7" x="294.73" y="0">A</tspan><tspan x="310.57" y="0">polo</tspan><tspan class="cls-8"><tspan class="cls-9" x="0" y="21.6">Q</tspan><tspan x="12.46" y="21.6">ué paso </tspan><tspan class="cls-10" x="74.95" y="21.6">c</tspan><tspan x="82.91" y="21.6">on ellos</tspan></tspan></text><path class="cls-11" d="M341.66,239.54l-52.45,15.52,2.46,7.69,50-14.13c0-3.54,0-6.77,0-9.08Z" transform="translate(-1 -1)"/><path class="cls-11" d="M292.21,251.63a21.49,21.49,0,0,1,1.65-33.56l-1.83-1.9a24.1,24.1,0,0,0-2.72,36.32Z" transform="translate(-1 -1)"/><path class="cls-11" d="M319.24,236.78a3.35,3.35,0,1,0-3.34-3.34A3.35,3.35,0,0,0,319.24,236.78Z" transform="translate(-1 -1)"/><path class="cls-11" d="M341.66,237v-1a30.56,30.56,0,0,0-49.8-23.58l0,0,19.06,19.8v13.87Zm-22.42-8.73a5.17,5.17,0,0,1,2.8.83l3.41-3.42,1.3,1.29-3.38,3.38a5.11,5.11,0,0,1,1,3.09,5.17,5.17,0,1,1-5.17-5.17Z" transform="translate(-1 -1)"/><path class="cls-11" d="M322.94,260.51c7.68,0,14.71,4.53,18.74,11.81h0s0-11.2,0-21.17l-49.31,13.94c-1.71,2.58-3,5.19-4.6,7.23H304.2c4.11-7.4,11.11-11.81,18.74-11.81Z" transform="translate(-1 -1)"/><path class="cls-11" d="M322.94,263c-6.28,0-12.1,3.45-15.82,9.3h31.65C335.1,266.55,329.26,263,322.94,263Z" transform="translate(-1 -1)"/><text class="cls-12" transform="translate(284.63 287.4)">A<tspan class="cls-13" x="7.31" y="0">polo 1</tspan></text><path d="M351.69,242c1,0-7-23-7-23l-5,6.79-2,9.21,1,9,5,7,9-3Z" transform="translate(-1 -1)"/><path class="cls-11" d="M395.66,239.54l-52.45,15.52,2.46,7.69,50-14.13c0-3.54,0-6.77,0-9.08Z" transform="translate(-1 -1)"/><path class="cls-11" d="M346.21,251.63a21.49,21.49,0,0,1,1.65-33.56l-1.83-1.9a24.1,24.1,0,0,0-2.72,36.32Z" transform="translate(-1 -1)"/><path class="cls-11" d="M373.24,236.78a3.35,3.35,0,1,0-3.34-3.34A3.35,3.35,0,0,0,373.24,236.78Z" transform="translate(-1 -1)"/><path class="cls-11" d="M395.66,237v-1a30.56,30.56,0,0,0-49.8-23.58l0,0,19.06,19.8v13.87Zm-22.42-8.73a5.17,5.17,0,0,1,2.8.83l3.41-3.42,1.3,1.29-3.38,3.38a5.11,5.11,0,0,1,1,3.09,5.17,5.17,0,1,1-5.17-5.17Z" transform="translate(-1 -1)"/><path class="cls-11" d="M376.94,260.51c7.68,0,14.71,4.53,18.74,11.81h0s0-11.2,0-21.17l-49.31,13.94c-1.71,2.58-3,5.19-4.6,7.23H358.2c4.11-7.4,11.11-11.81,18.74-11.81Z" transform="translate(-1 -1)"/><path class="cls-11" d="M376.94,263c-6.28,0-12.1,3.45-15.82,9.3h31.65C389.1,266.55,383.26,263,376.94,263Z" transform="translate(-1 -1)"/><path d="M405.69,242c1,0-7-23-7-23l-5,6.79-2,9.21,1,9,5,7,9-3Z" transform="translate(-1 -1)"/><path class="cls-11" d="M449.66,239.54l-52.45,15.52,2.46,7.69,50-14.13c0-3.54,0-6.77,0-9.08Z" transform="translate(-1 -1)"/><path class="cls-11" d="M400.21,251.63a21.49,21.49,0,0,1,1.65-33.56l-1.83-1.9a24.1,24.1,0,0,0-2.72,36.32Z" transform="translate(-1 -1)"/><path class="cls-11" d="M427.24,236.78a3.35,3.35,0,1,0-3.34-3.34A3.35,3.35,0,0,0,427.24,236.78Z" transform="translate(-1 -1)"/><path class="cls-11" d="M449.66,237v-1a30.56,30.56,0,0,0-49.8-23.58l0,0,19.06,19.8v13.87Zm-22.42-8.73a5.17,5.17,0,0,1,2.8.83l3.41-3.42,1.3,1.29-3.38,3.38a5.11,5.11,0,0,1,1,3.09,5.17,5.17,0,1,1-5.17-5.17Z" transform="translate(-1 -1)"/><path class="cls-11" d="M430.94,260.51c7.68,0,14.71,4.53,18.74,11.81h0s0-11.2,0-21.17l-49.31,13.94c-1.71,2.58-3,5.19-4.6,7.23H412.2c4.11-7.4,11.11-11.81,18.74-11.81Z" transform="translate(-1 -1)"/><path class="cls-11" d="M430.94,263c-6.28,0-12.1,3.45-15.82,9.3h31.65C443.1,266.55,437.26,263,430.94,263Z" transform="translate(-1 -1)"/><path class="cls-14" d="M308.44,370.22l-8.77-9.11a11.09,11.09,0,0,0-2.81,5c-.25,1.08-.53,3.9-.53,3.9l-3.41,6.81a1,1,0,0,0-.08.41,1,1,0,0,0,1,1h2.45v3.62c0,2.76,1.09,4.14,2.69,4.74l9.42-2.79V370.22Zm-8,2.22a1.53,1.53,0,1,1,1.52-1.52A1.53,1.53,0,0,1,300.45,372.44Z" transform="translate(-1 -1)"/><path class="cls-14" d="M341.66,376.54l-52.45,15.52,2.46,7.69,50-14.13c0-3.54,0-6.77,0-9.08Z" transform="translate(-1 -1)"/><path class="cls-14" d="M292.21,388.63a21.49,21.49,0,0,1,1.65-33.56l-1.83-1.9a24.1,24.1,0,0,0-2.72,36.32Z" transform="translate(-1 -1)"/><path class="cls-14" d="M319.24,373.78a3.35,3.35,0,1,0-3.34-3.34A3.35,3.35,0,0,0,319.24,373.78Z" transform="translate(-1 -1)"/><path class="cls-14" d="M341.66,374v-1a30.56,30.56,0,0,0-49.8-23.58l0,0,19.06,19.8v13.87Zm-22.42-8.73a5.17,5.17,0,0,1,2.8.83l3.41-3.42,1.3,1.29-3.38,3.38a5.11,5.11,0,0,1,1,3.09,5.17,5.17,0,1,1-5.17-5.17Z" transform="translate(-1 -1)"/><path class="cls-14" d="M322.94,397.51c7.68,0,14.71,4.53,18.74,11.81h0s0-11.2,0-21.17l-49.31,13.94c-1.71,2.58-3,5.19-4.6,7.23H304.2c4.11-7.4,11.11-11.81,18.74-11.81Z" transform="translate(-1 -1)"/><path class="cls-14" d="M322.94,400c-6.28,0-12.1,3.45-15.82,9.3h31.65C335.1,403.55,329.26,400,322.94,400Z" transform="translate(-1 -1)"/><text class="cls-15" transform="translate(284.63 424.4)">A<tspan class="cls-13" x="7.31" y="0">polo 9</tspan></text><path d="M351.69,378c1,0-7-23-7-23l-5,6.79-2,9.21,1,9,5,7,9-3Z" transform="translate(-1 -1)"/><path class="cls-16" d="M362.44,370.22l-8.77-9.11a11.09,11.09,0,0,0-2.81,5c-.25,1.08-.53,3.9-.53,3.9l-3.41,6.81a1,1,0,0,0-.08.41,1,1,0,0,0,1,1h2.45v3.62c0,2.76,1.09,4.14,2.69,4.74l9.42-2.79V370.22Zm-8,2.22a1.53,1.53,0,1,1,1.52-1.52A1.53,1.53,0,0,1,354.45,372.44Z" transform="translate(-1 -1)"/><path class="cls-16" d="M395.66,376.54l-52.45,15.52,2.46,7.69,50-14.13c0-3.54,0-6.77,0-9.08Z" transform="translate(-1 -1)"/><path class="cls-16" d="M346.21,388.63a21.49,21.49,0,0,1,1.65-33.56l-1.83-1.9a24.1,24.1,0,0,0-2.72,36.32Z" transform="translate(-1 -1)"/><path class="cls-16" d="M373.24,373.78a3.35,3.35,0,1,0-3.34-3.34A3.35,3.35,0,0,0,373.24,373.78Z" transform="translate(-1 -1)"/><path class="cls-16" d="M395.66,374v-1a30.56,30.56,0,0,0-49.8-23.58l0,0,19.06,19.8v13.87Zm-22.42-8.73a5.17,5.17,0,0,1,2.8.83l3.41-3.42,1.3,1.29-3.38,3.38a5.11,5.11,0,0,1,1,3.09,5.17,5.17,0,1,1-5.17-5.17Z" transform="translate(-1 -1)"/><path class="cls-16" d="M376.94,397.51c7.68,0,14.71,4.53,18.74,11.81h0s0-11.2,0-21.17l-49.31,13.94c-1.71,2.58-3,5.19-4.6,7.23H358.2c4.11-7.4,11.11-11.81,18.74-11.81Z" transform="translate(-1 -1)"/><path class="cls-16" d="M376.94,400c-6.28,0-12.1,3.45-15.82,9.3h31.65C389.1,403.55,383.26,400,376.94,400Z" transform="translate(-1 -1)"/><path d="M405.69,378c1,0-7-23-7-23l-5,6.79-2,9.21,1,9,5,7,9-3Z" transform="translate(-1 -1)"/><path class="cls-14" d="M416.44,370.22l-8.77-9.11a11.09,11.09,0,0,0-2.81,5c-.25,1.08-.53,3.9-.53,3.9l-3.41,6.81a1,1,0,0,0-.08.41,1,1,0,0,0,1,1h2.45v3.62c0,2.76,1.09,4.14,2.69,4.74l9.42-2.79V370.22Zm-8,2.22a1.53,1.53,0,1,1,1.52-1.52A1.53,1.53,0,0,1,408.45,372.44Z" transform="translate(-1 -1)"/><path class="cls-14" d="M449.66,376.54l-52.45,15.52,2.46,7.69,50-14.13c0-3.54,0-6.77,0-9.08Z" transform="translate(-1 -1)"/><path class="cls-14" d="M400.21,388.63a21.49,21.49,0,0,1,1.65-33.56l-1.83-1.9a24.1,24.1,0,0,0-2.72,36.32Z" transform="translate(-1 -1)"/><path class="cls-14" d="M427.24,373.78a3.35,3.35,0,1,0-3.34-3.34A3.35,3.35,0,0,0,427.24,373.78Z" transform="translate(-1 -1)"/><path class="cls-14" d="M449.66,374v-1a30.56,30.56,0,0,0-49.8-23.58l0,0,19.06,19.8v13.87Zm-22.42-8.73a5.17,5.17,0,0,1,2.8.83l3.41-3.42,1.3,1.29-3.38,3.38a5.11,5.11,0,0,1,1,3.09,5.17,5.17,0,1,1-5.17-5.17Z" transform="translate(-1 -1)"/><path class="cls-14" d="M430.94,397.51c7.68,0,14.71,4.53,18.74,11.81h0s0-11.2,0-21.17l-49.31,13.94c-1.71,2.58-3,5.19-4.6,7.23H412.2c4.11-7.4,11.11-11.81,18.74-11.81Z" transform="translate(-1 -1)"/><path class="cls-14" d="M430.94,400c-6.28,0-12.1,3.45-15.82,9.3h31.65C443.1,403.55,437.26,400,430.94,400Z" transform="translate(-1 -1)"/><path class="cls-14" d="M308.44,507.22l-8.77-9.11a11.09,11.09,0,0,0-2.81,5c-.25,1.08-.53,3.9-.53,3.9l-3.41,6.81a1,1,0,0,0-.08.41,1,1,0,0,0,1,1h2.45v3.62c0,2.76,1.09,4.14,2.69,4.74l9.42-2.79V507.22Zm-8,2.22a1.53,1.53,0,1,1,1.52-1.52A1.53,1.53,0,0,1,300.45,509.44Z" transform="translate(-1 -1)"/><path class="cls-14" d="M341.66,513.54l-52.45,15.52,2.46,7.69,50-14.13c0-3.54,0-6.77,0-9.08Z" transform="translate(-1 -1)"/><path class="cls-14" d="M292.21,525.63a21.49,21.49,0,0,1,1.65-33.56l-1.83-1.9a24.1,24.1,0,0,0-2.72,36.32Z" transform="translate(-1 -1)"/><path class="cls-14" d="M319.24,510.78a3.35,3.35,0,1,0-3.34-3.34A3.35,3.35,0,0,0,319.24,510.78Z" transform="translate(-1 -1)"/><path class="cls-14" d="M341.66,511v-1a30.56,30.56,0,0,0-49.8-23.58l0,0,19.06,19.8v13.87Zm-22.42-8.73a5.17,5.17,0,0,1,2.8.83l3.41-3.42,1.3,1.29-3.38,3.38a5.11,5.11,0,0,1,1,3.09,5.17,5.17,0,1,1-5.17-5.17Z" transform="translate(-1 -1)"/><path class="cls-14" d="M322.94,534.51c7.68,0,14.71,4.53,18.74,11.81h0s0-11.2,0-21.17l-49.31,13.94c-1.71,2.58-3,5.19-4.6,7.23H304.2c4.11-7.4,11.11-11.81,18.74-11.81Z" transform="translate(-1 -1)"/><path class="cls-14" d="M322.94,537c-6.28,0-12.1,3.45-15.82,9.3h31.65C335.1,540.55,329.26,537,322.94,537Z" transform="translate(-1 -1)"/><text class="cls-15" transform="translate(284.63 561.4)">A<tspan class="cls-13" x="7.31" y="0">polo 12</tspan></text><path d="M351.69,516c1,0-7-23-7-23l-5,6.79-2,9.21,1,9,5,7,9-3Z" transform="translate(-1 -1)"/><path class="cls-14" d="M362.44,507.22l-8.77-9.11a11.09,11.09,0,0,0-2.81,5c-.25,1.08-.53,3.9-.53,3.9l-3.41,6.81a1,1,0,0,0-.08.41,1,1,0,0,0,1,1h2.45v3.62c0,2.76,1.09,4.14,2.69,4.74l9.42-2.79V507.22Zm-8,2.22a1.53,1.53,0,1,1,1.52-1.52A1.53,1.53,0,0,1,354.45,509.44Z" transform="translate(-1 -1)"/><path class="cls-14" d="M395.66,513.54l-52.45,15.52,2.46,7.69,50-14.13c0-3.54,0-6.77,0-9.08Z" transform="translate(-1 -1)"/><path class="cls-14" d="M346.21,525.63a21.49,21.49,0,0,1,1.65-33.56l-1.83-1.9a24.1,24.1,0,0,0-2.72,36.32Z" transform="translate(-1 -1)"/><path class="cls-14" d="M373.24,510.78a3.35,3.35,0,1,0-3.34-3.34A3.35,3.35,0,0,0,373.24,510.78Z" transform="translate(-1 -1)"/><path class="cls-14" d="M395.66,511v-1a30.56,30.56,0,0,0-49.8-23.58l0,0,19.06,19.8v13.87Zm-22.42-8.73a5.17,5.17,0,0,1,2.8.83l3.41-3.42,1.3,1.29-3.38,3.38a5.11,5.11,0,0,1,1,3.09,5.17,5.17,0,1,1-5.17-5.17Z" transform="translate(-1 -1)"/><path class="cls-14" d="M376.94,534.51c7.68,0,14.71,4.53,18.74,11.81h0s0-11.2,0-21.17l-49.31,13.94c-1.71,2.58-3,5.19-4.6,7.23H358.2c4.11-7.4,11.11-11.81,18.74-11.81Z" transform="translate(-1 -1)"/><path class="cls-14" d="M376.94,537c-6.28,0-12.1,3.45-15.82,9.3h31.65C389.1,540.55,383.26,537,376.94,537Z" transform="translate(-1 -1)"/><path d="M405.69,516c1,0-7-23-7-23l-5,6.79-2,9.21,1,9,5,7,9-3Z" transform="translate(-1 -1)"/><path class="cls-14" d="M416.44,507.22l-8.77-9.11a11.09,11.09,0,0,0-2.81,5c-.25,1.08-.53,3.9-.53,3.9l-3.41,6.81a1,1,0,0,0-.08.41,1,1,0,0,0,1,1h2.45v3.62c0,2.76,1.09,4.14,2.69,4.74l9.42-2.79V507.22Zm-8,2.22a1.53,1.53,0,1,1,1.52-1.52A1.53,1.53,0,0,1,408.45,509.44Z" transform="translate(-1 -1)"/><path class="cls-14" d="M449.66,513.54l-52.45,15.52,2.46,7.69,50-14.13c0-3.54,0-6.77,0-9.08Z" transform="translate(-1 -1)"/><path class="cls-14" d="M400.21,525.63a21.49,21.49,0,0,1,1.65-33.56l-1.83-1.9a24.1,24.1,0,0,0-2.72,36.32Z" transform="translate(-1 -1)"/><path class="cls-14" d="M427.24,510.78a3.35,3.35,0,1,0-3.34-3.34A3.35,3.35,0,0,0,427.24,510.78Z" transform="translate(-1 -1)"/><path class="cls-14" d="M449.66,511v-1a30.56,30.56,0,0,0-49.8-23.58l0,0,19.06,19.8v13.87Zm-22.42-8.73a5.17,5.17,0,0,1,2.8.83l3.41-3.42,1.3,1.29-3.38,3.38a5.11,5.11,0,0,1,1,3.09,5.17,5.17,0,1,1-5.17-5.17Z" transform="translate(-1 -1)"/><path class="cls-14" d="M430.94,534.51c7.68,0,14.71,4.53,18.74,11.81h0s0-11.2,0-21.17l-49.31,13.94c-1.71,2.58-3,5.19-4.6,7.23H412.2c4.11-7.4,11.11-11.81,18.74-11.81Z" transform="translate(-1 -1)"/><path class="cls-14" d="M430.94,537c-6.28,0-12.1,3.45-15.82,9.3h31.65C443.1,540.55,437.26,537,430.94,537Z" transform="translate(-1 -1)"/><g class="cls-17"><path class="cls-18" d="M308.44,644.22l-8.77-9.11a11.09,11.09,0,0,0-2.81,5c-.25,1.08-.53,3.9-.53,3.9l-3.41,6.81a1,1,0,0,0-.08.41,1,1,0,0,0,1,1h2.45v3.62c0,2.76,1.09,4.14,2.69,4.74l9.42-2.79V644.22Zm-8,2.22a1.53,1.53,0,1,1,1.52-1.52A1.53,1.53,0,0,1,300.45,646.44Z" transform="translate(-1 -1)"/><path class="cls-18" d="M341.66,650.54l-52.45,15.52,2.46,7.69,50-14.13c0-3.54,0-6.77,0-9.08Z" transform="translate(-1 -1)"/><path class="cls-18" d="M292.21,662.63a21.49,21.49,0,0,1,1.65-33.56l-1.83-1.9a24.1,24.1,0,0,0-2.72,36.32Z" transform="translate(-1 -1)"/><path class="cls-18" d="M319.24,647.78a3.35,3.35,0,1,0-3.34-3.34A3.35,3.35,0,0,0,319.24,647.78Z" transform="translate(-1 -1)"/><path class="cls-18" d="M341.66,648v-1a30.56,30.56,0,0,0-49.8-23.58l0,0,19.06,19.8v13.87Zm-22.42-8.73a5.17,5.17,0,0,1,2.8.83l3.41-3.42,1.3,1.29-3.38,3.38a5.11,5.11,0,0,1,1,3.09,5.17,5.17,0,1,1-5.17-5.17Z" transform="translate(-1 -1)"/><path class="cls-18" d="M322.94,671.51c7.68,0,14.71,4.53,18.74,11.81h0s0-11.2,0-21.17l-49.31,13.94c-1.71,2.58-3,5.19-4.6,7.23H304.2c4.11-7.4,11.11-11.81,18.74-11.81Z" transform="translate(-1 -1)"/><path class="cls-18" d="M322.94,674c-6.28,0-12.1,3.45-15.82,9.3h31.65C335.1,677.55,329.26,674,322.94,674Z" transform="translate(-1 -1)"/></g><text class="cls-15" transform="translate(284.63 698.4)">A<tspan class="cls-13" x="7.31" y="0">polo 15</tspan></text><path d="M351.69,652c1,0-7-23-7-23l-5,6.79-2,9.21,1,9,5,7,9-3Z" transform="translate(-1 -1)"/><path class="cls-14" d="M362.44,644.22l-8.77-9.11a11.09,11.09,0,0,0-2.81,5c-.25,1.08-.53,3.9-.53,3.9l-3.41,6.81a1,1,0,0,0-.08.41,1,1,0,0,0,1,1h2.45v3.62c0,2.76,1.09,4.14,2.69,4.74l9.42-2.79V644.22Zm-8,2.22a1.53,1.53,0,1,1,1.52-1.52A1.53,1.53,0,0,1,354.45,646.44Z" transform="translate(-1 -1)"/><path class="cls-14" d="M395.66,650.54l-52.45,15.52,2.46,7.69,50-14.13c0-3.54,0-6.77,0-9.08Z" transform="translate(-1 -1)"/><path class="cls-14" d="M346.21,662.63a21.49,21.49,0,0,1,1.65-33.56l-1.83-1.9a24.1,24.1,0,0,0-2.72,36.32Z" transform="translate(-1 -1)"/><path class="cls-14" d="M373.24,647.78a3.35,3.35,0,1,0-3.34-3.34A3.35,3.35,0,0,0,373.24,647.78Z" transform="translate(-1 -1)"/><path class="cls-14" d="M395.66,648v-1a30.56,30.56,0,0,0-49.8-23.58l0,0,19.06,19.8v13.87Zm-22.42-8.73a5.17,5.17,0,0,1,2.8.83l3.41-3.42,1.3,1.29-3.38,3.38a5.11,5.11,0,0,1,1,3.09,5.17,5.17,0,1,1-5.17-5.17Z" transform="translate(-1 -1)"/><path class="cls-14" d="M376.94,671.51c7.68,0,14.71,4.53,18.74,11.81h0s0-11.2,0-21.17l-49.31,13.94c-1.71,2.58-3,5.19-4.6,7.23H358.2c4.11-7.4,11.11-11.81,18.74-11.81Z" transform="translate(-1 -1)"/><path class="cls-14" d="M376.94,674c-6.28,0-12.1,3.45-15.82,9.3h31.65C389.1,677.55,383.26,674,376.94,674Z" transform="translate(-1 -1)"/><path d="M405.69,652c1,0-7-23-7-23l-5,6.79-2,9.21,1,9,5,7,9-3Z" transform="translate(-1 -1)"/><path class="cls-14" d="M416.44,644.22l-8.77-9.11a11.09,11.09,0,0,0-2.81,5c-.25,1.08-.53,3.9-.53,3.9l-3.41,6.81a1,1,0,0,0-.08.41,1,1,0,0,0,1,1h2.45v3.62c0,2.76,1.09,4.14,2.69,4.74l9.42-2.79V644.22Zm-8,2.22a1.53,1.53,0,1,1,1.52-1.52A1.53,1.53,0,0,1,408.45,646.44Z" transform="translate(-1 -1)"/><path class="cls-14" d="M449.66,650.54l-52.45,15.52,2.46,7.69,50-14.13c0-3.54,0-6.77,0-9.08Z" transform="translate(-1 -1)"/><path class="cls-14" d="M400.21,662.63a21.49,21.49,0,0,1,1.65-33.56l-1.83-1.9a24.1,24.1,0,0,0-2.72,36.32Z" transform="translate(-1 -1)"/><path class="cls-14" d="M427.24,647.78a3.35,3.35,0,1,0-3.34-3.34A3.35,3.35,0,0,0,427.24,647.78Z" transform="translate(-1 -1)"/><path class="cls-14" d="M449.66,648v-1a30.56,30.56,0,0,0-49.8-23.58l0,0,19.06,19.8v13.87Zm-22.42-8.73a5.17,5.17,0,0,1,2.8.83l3.41-3.42,1.3,1.29-3.38,3.38a5.11,5.11,0,0,1,1,3.09,5.17,5.17,0,1,1-5.17-5.17Z" transform="translate(-1 -1)"/><path class="cls-14" d="M430.94,671.51c7.68,0,14.71,4.53,18.74,11.81h0s0-11.2,0-21.17l-49.31,13.94c-1.71,2.58-3,5.19-4.6,7.23H412.2c4.11-7.4,11.11-11.81,18.74-11.81Z" transform="translate(-1 -1)"/><path class="cls-14" d="M430.94,674c-6.28,0-12.1,3.45-15.82,9.3h31.65C443.1,677.55,437.26,674,430.94,674Z" transform="translate(-1 -1)"/><path class="cls-14" d="M518.44,233.22l-8.77-9.11a11.09,11.09,0,0,0-2.81,5c-.25,1.08-.53,3.9-.53,3.9l-3.41,6.81a1,1,0,0,0-.08.41,1,1,0,0,0,1,1h2.45v3.62c0,2.76,1.09,4.14,2.69,4.74l9.42-2.79V233.22Zm-8,2.22a1.53,1.53,0,1,1,1.52-1.52A1.53,1.53,0,0,1,510.45,235.44Z" transform="translate(-1 -1)"/><path class="cls-14" d="M551.66,239.54l-52.45,15.52,2.46,7.69,50-14.13c0-3.54,0-6.77,0-9.08Z" transform="translate(-1 -1)"/><path class="cls-14" d="M502.21,251.63a21.49,21.49,0,0,1,1.65-33.56l-1.83-1.9a24.1,24.1,0,0,0-2.72,36.32Z" transform="translate(-1 -1)"/><path class="cls-14" d="M529.24,236.78a3.35,3.35,0,1,0-3.34-3.34A3.35,3.35,0,0,0,529.24,236.78Z" transform="translate(-1 -1)"/><path class="cls-14" d="M551.66,237v-1a30.56,30.56,0,0,0-49.8-23.58l0,0,19.06,19.8v13.87Zm-22.42-8.73a5.17,5.17,0,0,1,2.8.83l3.41-3.42,1.3,1.29-3.38,3.38a5.11,5.11,0,0,1,1,3.09,5.17,5.17,0,1,1-5.17-5.17Z" transform="translate(-1 -1)"/><path class="cls-14" d="M532.94,260.51c7.68,0,14.71,4.53,18.74,11.81h0s0-11.2,0-21.17l-49.31,13.94c-1.71,2.58-3,5.19-4.6,7.23H514.2c4.11-7.4,11.11-11.81,18.74-11.81Z" transform="translate(-1 -1)"/><path class="cls-14" d="M532.94,263c-6.28,0-12.1,3.45-15.82,9.3h31.65C545.1,266.55,539.26,263,532.94,263Z" transform="translate(-1 -1)"/><text class="cls-15" transform="translate(495.63 287.4)">A<tspan class="cls-13" x="7.31" y="0">polo 7</tspan></text><path d="M561.69,242c1,0-7-23-7-23l-5,6.79-2,9.21,1,9,5,7,9-3Z" transform="translate(-1 -1)"/><path class="cls-14" d="M572.44,233.22l-8.77-9.11a11.09,11.09,0,0,0-2.81,5c-.25,1.08-.53,3.9-.53,3.9l-3.41,6.81a1,1,0,0,0-.08.41,1,1,0,0,0,1,1h2.45v3.62c0,2.76,1.09,4.14,2.69,4.74l9.42-2.79V233.22Zm-8,2.22a1.53,1.53,0,1,1,1.52-1.52A1.53,1.53,0,0,1,564.45,235.44Z" transform="translate(-1 -1)"/><path class="cls-14" d="M605.66,239.54l-52.45,15.52,2.46,7.69,50-14.13c0-3.54,0-6.77,0-9.08Z" transform="translate(-1 -1)"/><path class="cls-14" d="M556.21,251.63a21.49,21.49,0,0,1,1.65-33.56l-1.83-1.9a24.1,24.1,0,0,0-2.72,36.32Z" transform="translate(-1 -1)"/><path class="cls-14" d="M583.24,236.78a3.35,3.35,0,1,0-3.34-3.34A3.35,3.35,0,0,0,583.24,236.78Z" transform="translate(-1 -1)"/><path class="cls-14" d="M605.66,237v-1a30.56,30.56,0,0,0-49.8-23.58l0,0,19.06,19.8v13.87Zm-22.42-8.73a5.17,5.17,0,0,1,2.8.83l3.41-3.42,1.3,1.29-3.38,3.38a5.11,5.11,0,0,1,1,3.09,5.17,5.17,0,1,1-5.17-5.17Z" transform="translate(-1 -1)"/><path class="cls-14" d="M586.94,260.51c7.68,0,14.71,4.53,18.74,11.81h0s0-11.2,0-21.17l-49.31,13.94c-1.71,2.58-3,5.19-4.6,7.23H568.2c4.11-7.4,11.11-11.81,18.74-11.81Z" transform="translate(-1 -1)"/><path class="cls-14" d="M586.94,263c-6.28,0-12.1,3.45-15.82,9.3h31.65C599.1,266.55,593.26,263,586.94,263Z" transform="translate(-1 -1)"/><path d="M615.69,242c1,0-7-23-7-23l-5,6.79-2,9.21,1,9,5,7,9-3Z" transform="translate(-1 -1)"/><path class="cls-14" d="M626.44,233.22l-8.77-9.11a11.09,11.09,0,0,0-2.81,5c-.25,1.08-.53,3.9-.53,3.9l-3.41,6.81a1,1,0,0,0-.08.41,1,1,0,0,0,1,1h2.45v3.62c0,2.76,1.09,4.14,2.69,4.74l9.42-2.79V233.22Zm-8,2.22a1.53,1.53,0,1,1,1.52-1.52A1.53,1.53,0,0,1,618.45,235.44Z" transform="translate(-1 -1)"/><path class="cls-14" d="M659.66,239.54l-52.45,15.52,2.46,7.69,50-14.13c0-3.54,0-6.77,0-9.08Z" transform="translate(-1 -1)"/><path class="cls-14" d="M610.21,251.63a21.49,21.49,0,0,1,1.65-33.56l-1.83-1.9a24.1,24.1,0,0,0-2.72,36.32Z" transform="translate(-1 -1)"/><path class="cls-14" d="M637.24,236.78a3.35,3.35,0,1,0-3.34-3.34A3.35,3.35,0,0,0,637.24,236.78Z" transform="translate(-1 -1)"/><path class="cls-14" d="M659.66,237v-1a30.56,30.56,0,0,0-49.8-23.58l0,0,19.06,19.8v13.87Zm-22.42-8.73a5.17,5.17,0,0,1,2.8.83l3.41-3.42,1.3,1.29-3.38,3.38a5.11,5.11,0,0,1,1,3.09,5.17,5.17,0,1,1-5.17-5.17Z" transform="translate(-1 -1)"/><path class="cls-14" d="M640.94,260.51c7.68,0,14.71,4.53,18.74,11.81h0s0-11.2,0-21.17l-49.31,13.94c-1.71,2.58-3,5.19-4.6,7.23H622.2c4.11-7.4,11.11-11.81,18.74-11.81Z" transform="translate(-1 -1)"/><path class="cls-14" d="M640.94,263c-6.28,0-12.1,3.45-15.82,9.3h31.65C653.1,266.55,647.26,263,640.94,263Z" transform="translate(-1 -1)"/><path class="cls-14" d="M518.44,370.22l-8.77-9.11a11.09,11.09,0,0,0-2.81,5c-.25,1.08-.53,3.9-.53,3.9l-3.41,6.81a1,1,0,0,0-.08.41,1,1,0,0,0,1,1h2.45v3.62c0,2.76,1.09,4.14,2.69,4.74l9.42-2.79V370.22Zm-8,2.22a1.53,1.53,0,1,1,1.52-1.52A1.53,1.53,0,0,1,510.45,372.44Z" transform="translate(-1 -1)"/><path class="cls-14" d="M551.66,376.54l-52.45,15.52,2.46,7.69,50-14.13c0-3.54,0-6.77,0-9.08Z" transform="translate(-1 -1)"/><path class="cls-14" d="M502.21,388.63a21.49,21.49,0,0,1,1.65-33.56l-1.83-1.9a24.1,24.1,0,0,0-2.72,36.32Z" transform="translate(-1 -1)"/><path class="cls-14" d="M529.24,373.78a3.35,3.35,0,1,0-3.34-3.34A3.35,3.35,0,0,0,529.24,373.78Z" transform="translate(-1 -1)"/><path class="cls-14" d="M551.66,374v-1a30.56,30.56,0,0,0-49.8-23.58l0,0,19.06,19.8v13.87Zm-22.42-8.73a5.17,5.17,0,0,1,2.8.83l3.41-3.42,1.3,1.29-3.38,3.38a5.11,5.11,0,0,1,1,3.09,5.17,5.17,0,1,1-5.17-5.17Z" transform="translate(-1 -1)"/><path class="cls-14" d="M532.94,397.51c7.68,0,14.71,4.53,18.74,11.81h0s0-11.2,0-21.17l-49.31,13.94c-1.71,2.58-3,5.19-4.6,7.23H514.2c4.11-7.4,11.11-11.81,18.74-11.81Z" transform="translate(-1 -1)"/><path class="cls-14" d="M532.94,400c-6.28,0-12.1,3.45-15.82,9.3h31.65C545.1,403.55,539.26,400,532.94,400Z" transform="translate(-1 -1)"/><text class="cls-15" transform="translate(495.63 424.4)">A<tspan class="cls-13" x="7.31" y="0">polo 10</tspan></text><path d="M561.69,378c1,0-7-23-7-23l-5,6.79-2,9.21,1,9,5,7,9-3Z" transform="translate(-1 -1)"/><path class="cls-16" d="M572.44,370.22l-8.77-9.11a11.09,11.09,0,0,0-2.81,5c-.25,1.08-.53,3.9-.53,3.9l-3.41,6.81a1,1,0,0,0-.08.41,1,1,0,0,0,1,1h2.45v3.62c0,2.76,1.09,4.14,2.69,4.74l9.42-2.79V370.22Zm-8,2.22a1.53,1.53,0,1,1,1.52-1.52A1.53,1.53,0,0,1,564.45,372.44Z" transform="translate(-1 -1)"/><path class="cls-16" d="M605.66,376.54l-52.45,15.52,2.46,7.69,50-14.13c0-3.54,0-6.77,0-9.08Z" transform="translate(-1 -1)"/><path class="cls-16" d="M556.21,388.63a21.49,21.49,0,0,1,1.65-33.56l-1.83-1.9a24.1,24.1,0,0,0-2.72,36.32Z" transform="translate(-1 -1)"/><path class="cls-16" d="M583.24,373.78a3.35,3.35,0,1,0-3.34-3.34A3.35,3.35,0,0,0,583.24,373.78Z" transform="translate(-1 -1)"/><path class="cls-16" d="M605.66,374v-1a30.56,30.56,0,0,0-49.8-23.58l0,0,19.06,19.8v13.87Zm-22.42-8.73a5.17,5.17,0,0,1,2.8.83l3.41-3.42,1.3,1.29-3.38,3.38a5.11,5.11,0,0,1,1,3.09,5.17,5.17,0,1,1-5.17-5.17Z" transform="translate(-1 -1)"/><path class="cls-16" d="M586.94,397.51c7.68,0,14.71,4.53,18.74,11.81h0s0-11.2,0-21.17l-49.31,13.94c-1.71,2.58-3,5.19-4.6,7.23H568.2c4.11-7.4,11.11-11.81,18.74-11.81Z" transform="translate(-1 -1)"/><path class="cls-16" d="M586.94,400c-6.28,0-12.1,3.45-15.82,9.3h31.65C599.1,403.55,593.26,400,586.94,400Z" transform="translate(-1 -1)"/><path d="M615.69,378c1,0-7-23-7-23l-5,6.79-2,9.21,1,9,5,7,9-3Z" transform="translate(-1 -1)"/><path class="cls-16" d="M626.44,370.22l-8.77-9.11a11.09,11.09,0,0,0-2.81,5c-.25,1.08-.53,3.9-.53,3.9l-3.41,6.81a1,1,0,0,0-.08.41,1,1,0,0,0,1,1h2.45v3.62c0,2.76,1.09,4.14,2.69,4.74l9.42-2.79V370.22Zm-8,2.22a1.53,1.53,0,1,1,1.52-1.52A1.53,1.53,0,0,1,618.45,372.44Z" transform="translate(-1 -1)"/><path class="cls-16" d="M659.66,376.54l-52.45,15.52,2.46,7.69,50-14.13c0-3.54,0-6.77,0-9.08Z" transform="translate(-1 -1)"/><path class="cls-16" d="M610.21,388.63a21.49,21.49,0,0,1,1.65-33.56l-1.83-1.9a24.1,24.1,0,0,0-2.72,36.32Z" transform="translate(-1 -1)"/><path class="cls-16" d="M637.24,373.78a3.35,3.35,0,1,0-3.34-3.34A3.35,3.35,0,0,0,637.24,373.78Z" transform="translate(-1 -1)"/><path class="cls-16" d="M659.66,374v-1a30.56,30.56,0,0,0-49.8-23.58l0,0,19.06,19.8v13.87Zm-22.42-8.73a5.17,5.17,0,0,1,2.8.83l3.41-3.42,1.3,1.29-3.38,3.38a5.11,5.11,0,0,1,1,3.09,5.17,5.17,0,1,1-5.17-5.17Z" transform="translate(-1 -1)"/><path class="cls-16" d="M640.94,397.51c7.68,0,14.71,4.53,18.74,11.81h0s0-11.2,0-21.17l-49.31,13.94c-1.71,2.58-3,5.19-4.6,7.23H622.2c4.11-7.4,11.11-11.81,18.74-11.81Z" transform="translate(-1 -1)"/><path class="cls-16" d="M640.94,400c-6.28,0-12.1,3.45-15.82,9.3h31.65C653.1,403.55,647.26,400,640.94,400Z" transform="translate(-1 -1)"/><path class="cls-14" d="M728.44,233.22l-8.77-9.11a11.09,11.09,0,0,0-2.81,5c-.25,1.08-.53,3.9-.53,3.9l-3.41,6.81a1,1,0,0,0-.08.41,1,1,0,0,0,1,1h2.45v3.62c0,2.76,1.09,4.14,2.69,4.74l9.42-2.79V233.22Zm-8,2.22a1.53,1.53,0,1,1,1.52-1.52A1.53,1.53,0,0,1,720.45,235.44Z" transform="translate(-1 -1)"/><path class="cls-14" d="M761.66,239.54l-52.45,15.52,2.46,7.69,50-14.13c0-3.54,0-6.77,0-9.08Z" transform="translate(-1 -1)"/><path class="cls-14" d="M712.21,251.63a21.49,21.49,0,0,1,1.65-33.56l-1.83-1.9a24.1,24.1,0,0,0-2.72,36.32Z" transform="translate(-1 -1)"/><path class="cls-14" d="M739.24,236.78a3.35,3.35,0,1,0-3.34-3.34A3.35,3.35,0,0,0,739.24,236.78Z" transform="translate(-1 -1)"/><path class="cls-14" d="M761.66,237v-1a30.56,30.56,0,0,0-49.8-23.58l0,0,19.06,19.8v13.87Zm-22.42-8.73a5.17,5.17,0,0,1,2.8.83l3.41-3.42,1.3,1.29-3.38,3.38a5.11,5.11,0,0,1,1,3.09,5.17,5.17,0,1,1-5.17-5.17Z" transform="translate(-1 -1)"/><path class="cls-14" d="M742.94,260.51c7.68,0,14.71,4.53,18.74,11.81h0s0-11.2,0-21.17l-49.31,13.94c-1.71,2.58-3,5.19-4.6,7.23H724.2c4.11-7.4,11.11-11.81,18.74-11.81Z" transform="translate(-1 -1)"/><path class="cls-14" d="M742.94,263c-6.28,0-12.1,3.45-15.82,9.3h31.65C755.1,266.55,749.26,263,742.94,263Z" transform="translate(-1 -1)"/><text class="cls-15" transform="translate(704.63 287.4)">A<tspan class="cls-13" x="7.31" y="0">polo 8</tspan></text><path d="M771.69,242c1,0-7-23-7-23l-5,6.79-2,9.21,1,9,5,7,9-3Z" transform="translate(-1 -1)"/><path class="cls-16" d="M782.44,233.22l-8.77-9.11a11.09,11.09,0,0,0-2.81,5c-.25,1.08-.53,3.9-.53,3.9l-3.41,6.81a1,1,0,0,0-.08.41,1,1,0,0,0,1,1h2.45v3.62c0,2.76,1.09,4.14,2.69,4.74l9.42-2.79V233.22Zm-8,2.22a1.53,1.53,0,1,1,1.52-1.52A1.53,1.53,0,0,1,774.45,235.44Z" transform="translate(-1 -1)"/><path class="cls-16" d="M815.66,239.54l-52.45,15.52,2.46,7.69,50-14.13c0-3.54,0-6.77,0-9.08Z" transform="translate(-1 -1)"/><path class="cls-16" d="M766.21,251.63a21.49,21.49,0,0,1,1.65-33.56l-1.83-1.9a24.1,24.1,0,0,0-2.72,36.32Z" transform="translate(-1 -1)"/><path class="cls-16" d="M793.24,236.78a3.35,3.35,0,1,0-3.34-3.34A3.35,3.35,0,0,0,793.24,236.78Z" transform="translate(-1 -1)"/><path class="cls-16" d="M815.66,237v-1a30.56,30.56,0,0,0-49.8-23.58l0,0,19.06,19.8v13.87Zm-22.42-8.73a5.17,5.17,0,0,1,2.8.83l3.41-3.42,1.3,1.29-3.38,3.38a5.11,5.11,0,0,1,1,3.09,5.17,5.17,0,1,1-5.17-5.17Z" transform="translate(-1 -1)"/><path class="cls-16" d="M796.94,260.51c7.68,0,14.71,4.53,18.74,11.81h0s0-11.2,0-21.17l-49.31,13.94c-1.71,2.58-3,5.19-4.6,7.23H778.2c4.11-7.4,11.11-11.81,18.74-11.81Z" transform="translate(-1 -1)"/><path class="cls-16" d="M796.94,263c-6.28,0-12.1,3.45-15.82,9.3h31.65C809.1,266.55,803.26,263,796.94,263Z" transform="translate(-1 -1)"/><path d="M825.69,242c1,0-7-23-7-23l-5,6.79-2,9.21,1,9,5,7,9-3Z" transform="translate(-1 -1)"/><path class="cls-14" d="M836.44,233.22l-8.77-9.11a11.09,11.09,0,0,0-2.81,5c-.25,1.08-.53,3.9-.53,3.9l-3.41,6.81a1,1,0,0,0-.08.41,1,1,0,0,0,1,1h2.45v3.62c0,2.76,1.09,4.14,2.69,4.74l9.42-2.79V233.22Zm-8,2.22a1.53,1.53,0,1,1,1.52-1.52A1.53,1.53,0,0,1,828.45,235.44Z" transform="translate(-1 -1)"/><path class="cls-14" d="M869.66,239.54l-52.45,15.52,2.46,7.69,50-14.13c0-3.54,0-6.77,0-9.08Z" transform="translate(-1 -1)"/><path class="cls-14" d="M820.21,251.63a21.49,21.49,0,0,1,1.65-33.56l-1.83-1.9a24.1,24.1,0,0,0-2.72,36.32Z" transform="translate(-1 -1)"/><path class="cls-14" d="M847.24,236.78a3.35,3.35,0,1,0-3.34-3.34A3.35,3.35,0,0,0,847.24,236.78Z" transform="translate(-1 -1)"/><path class="cls-14" d="M869.66,237v-1a30.56,30.56,0,0,0-49.8-23.58l0,0,19.06,19.8v13.87Zm-22.42-8.73a5.17,5.17,0,0,1,2.8.83l3.41-3.42,1.3,1.29-3.38,3.38a5.11,5.11,0,0,1,1,3.09,5.17,5.17,0,1,1-5.17-5.17Z" transform="translate(-1 -1)"/><path class="cls-14" d="M850.94,260.51c7.68,0,14.71,4.53,18.74,11.81h0s0-11.2,0-21.17l-49.31,13.94c-1.71,2.58-3,5.19-4.6,7.23H832.2c4.11-7.4,11.11-11.81,18.74-11.81Z" transform="translate(-1 -1)"/><path class="cls-14" d="M850.94,263c-6.28,0-12.1,3.45-15.82,9.3h31.65C863.1,266.55,857.26,263,850.94,263Z" transform="translate(-1 -1)"/><path class="cls-14" d="M728.44,370.22l-8.77-9.11a11.09,11.09,0,0,0-2.81,5c-.25,1.08-.53,3.9-.53,3.9l-3.41,6.81a1,1,0,0,0-.08.41,1,1,0,0,0,1,1h2.45v3.62c0,2.76,1.09,4.14,2.69,4.74l9.42-2.79V370.22Zm-8,2.22a1.53,1.53,0,1,1,1.52-1.52A1.53,1.53,0,0,1,720.45,372.44Z" transform="translate(-1 -1)"/><path class="cls-14" d="M761.66,376.54l-52.45,15.52,2.46,7.69,50-14.13c0-3.54,0-6.77,0-9.08Z" transform="translate(-1 -1)"/><path class="cls-14" d="M712.21,388.63a21.49,21.49,0,0,1,1.65-33.56l-1.83-1.9a24.1,24.1,0,0,0-2.72,36.32Z" transform="translate(-1 -1)"/><path class="cls-14" d="M739.24,373.78a3.35,3.35,0,1,0-3.34-3.34A3.35,3.35,0,0,0,739.24,373.78Z" transform="translate(-1 -1)"/><path class="cls-14" d="M761.66,374v-1a30.56,30.56,0,0,0-49.8-23.58l0,0,19.06,19.8v13.87Zm-22.42-8.73a5.17,5.17,0,0,1,2.8.83l3.41-3.42,1.3,1.29-3.38,3.38a5.11,5.11,0,0,1,1,3.09,5.17,5.17,0,1,1-5.17-5.17Z" transform="translate(-1 -1)"/><path class="cls-14" d="M742.94,397.51c7.68,0,14.71,4.53,18.74,11.81h0s0-11.2,0-21.17l-49.31,13.94c-1.71,2.58-3,5.19-4.6,7.23H724.2c4.11-7.4,11.11-11.81,18.74-11.81Z" transform="translate(-1 -1)"/><path class="cls-14" d="M742.94,400c-6.28,0-12.1,3.45-15.82,9.3h31.65C755.1,403.55,749.26,400,742.94,400Z" transform="translate(-1 -1)"/><text class="cls-15" transform="translate(704.63 424.4)">A<tspan class="cls-13" x="7.31" y="0">polo 11</tspan></text><path d="M771.69,379c1,0-7-23-7-23l-5,6.79-2,9.21,1,9,5,7,9-3Z" transform="translate(-1 -1)"/><path class="cls-14" d="M782.44,370.22l-8.77-9.11a11.09,11.09,0,0,0-2.81,5c-.25,1.08-.53,3.9-.53,3.9l-3.41,6.81a1,1,0,0,0-.08.41,1,1,0,0,0,1,1h2.45v3.62c0,2.76,1.09,4.14,2.69,4.74l9.42-2.79V370.22Zm-8,2.22a1.53,1.53,0,1,1,1.52-1.52A1.53,1.53,0,0,1,774.45,372.44Z" transform="translate(-1 -1)"/><path class="cls-14" d="M815.66,376.54l-52.45,15.52,2.46,7.69,50-14.13c0-3.54,0-6.77,0-9.08Z" transform="translate(-1 -1)"/><path class="cls-14" d="M766.21,388.63a21.49,21.49,0,0,1,1.65-33.56l-1.83-1.9a24.1,24.1,0,0,0-2.72,36.32Z" transform="translate(-1 -1)"/><path class="cls-14" d="M793.24,373.78a3.35,3.35,0,1,0-3.34-3.34A3.35,3.35,0,0,0,793.24,373.78Z" transform="translate(-1 -1)"/><path class="cls-14" d="M815.66,374v-1a30.56,30.56,0,0,0-49.8-23.58l0,0,19.06,19.8v13.87Zm-22.42-8.73a5.17,5.17,0,0,1,2.8.83l3.41-3.42,1.3,1.29-3.38,3.38a5.11,5.11,0,0,1,1,3.09,5.17,5.17,0,1,1-5.17-5.17Z" transform="translate(-1 -1)"/><path class="cls-14" d="M796.94,397.51c7.68,0,14.71,4.53,18.74,11.81h0s0-11.2,0-21.17l-49.31,13.94c-1.71,2.58-3,5.19-4.6,7.23H778.2c4.11-7.4,11.11-11.81,18.74-11.81Z" transform="translate(-1 -1)"/><path class="cls-14" d="M796.94,400c-6.28,0-12.1,3.45-15.82,9.3h31.65C809.1,403.55,803.26,400,796.94,400Z" transform="translate(-1 -1)"/><path d="M825.69,379c1,0-7-23-7-23l-5,6.79-2,9.21,1,9,5,7,9-3Z" transform="translate(-1 -1)"/><path class="cls-14" d="M836.44,370.22l-8.77-9.11a11.09,11.09,0,0,0-2.81,5c-.25,1.08-.53,3.9-.53,3.9l-3.41,6.81a1,1,0,0,0-.08.41,1,1,0,0,0,1,1h2.45v3.62c0,2.76,1.09,4.14,2.69,4.74l9.42-2.79V370.22Zm-8,2.22a1.53,1.53,0,1,1,1.52-1.52A1.53,1.53,0,0,1,828.45,372.44Z" transform="translate(-1 -1)"/><path class="cls-14" d="M869.66,376.54l-52.45,15.52,2.46,7.69,50-14.13c0-3.54,0-6.77,0-9.08Z" transform="translate(-1 -1)"/><path class="cls-14" d="M820.21,388.63a21.49,21.49,0,0,1,1.65-33.56l-1.83-1.9a24.1,24.1,0,0,0-2.72,36.32Z" transform="translate(-1 -1)"/><path class="cls-14" d="M847.24,373.78a3.35,3.35,0,1,0-3.34-3.34A3.35,3.35,0,0,0,847.24,373.78Z" transform="translate(-1 -1)"/><path class="cls-14" d="M869.66,374v-1a30.56,30.56,0,0,0-49.8-23.58l0,0,19.06,19.8v13.87Zm-22.42-8.73a5.17,5.17,0,0,1,2.8.83l3.41-3.42,1.3,1.29-3.38,3.38a5.11,5.11,0,0,1,1,3.09,5.17,5.17,0,1,1-5.17-5.17Z" transform="translate(-1 -1)"/><path class="cls-14" d="M850.94,397.51c7.68,0,14.71,4.53,18.74,11.81h0s0-11.2,0-21.17l-49.31,13.94c-1.71,2.58-3,5.19-4.6,7.23H832.2c4.11-7.4,11.11-11.81,18.74-11.81Z" transform="translate(-1 -1)"/><path class="cls-14" d="M850.94,400c-6.28,0-12.1,3.45-15.82,9.3h31.65C863.1,403.55,857.26,400,850.94,400Z" transform="translate(-1 -1)"/><g class="cls-17"><path class="cls-18" d="M518.44,507.22l-8.77-9.11a11.09,11.09,0,0,0-2.81,5c-.25,1.08-.53,3.9-.53,3.9l-3.41,6.81a1,1,0,0,0-.08.41,1,1,0,0,0,1,1h2.45v3.62c0,2.76,1.09,4.14,2.69,4.74l9.42-2.79V507.22Zm-8,2.22a1.53,1.53,0,1,1,1.52-1.52A1.53,1.53,0,0,1,510.45,509.44Z" transform="translate(-1 -1)"/><path class="cls-18" d="M551.66,513.54l-52.45,15.52,2.46,7.69,50-14.13c0-3.54,0-6.77,0-9.08Z" transform="translate(-1 -1)"/><path class="cls-18" d="M502.21,525.63a21.49,21.49,0,0,1,1.65-33.56l-1.83-1.9a24.1,24.1,0,0,0-2.72,36.32Z" transform="translate(-1 -1)"/><path class="cls-18" d="M529.24,510.78a3.35,3.35,0,1,0-3.34-3.34A3.35,3.35,0,0,0,529.24,510.78Z" transform="translate(-1 -1)"/><path class="cls-18" d="M551.66,511v-1a30.56,30.56,0,0,0-49.8-23.58l0,0,19.06,19.8v13.87Zm-22.42-8.73a5.17,5.17,0,0,1,2.8.83l3.41-3.42,1.3,1.29-3.38,3.38a5.11,5.11,0,0,1,1,3.09,5.17,5.17,0,1,1-5.17-5.17Z" transform="translate(-1 -1)"/><path class="cls-18" d="M532.94,534.51c7.68,0,14.71,4.53,18.74,11.81h0s0-11.2,0-21.17l-49.31,13.94c-1.71,2.58-3,5.19-4.6,7.23H514.2c4.11-7.4,11.11-11.81,18.74-11.81Z" transform="translate(-1 -1)"/><path class="cls-18" d="M532.94,537c-6.28,0-12.1,3.45-15.82,9.3h31.65C545.1,540.55,539.26,537,532.94,537Z" transform="translate(-1 -1)"/></g><text class="cls-15" transform="translate(495.63 561.4)">A<tspan class="cls-13" x="7.31" y="0">polo 13</tspan></text><path d="M561.69,516c1,0-7-23-7-23l-5,6.79-2,9.21,1,9,5,7,9-3Z" transform="translate(-1 -1)"/><path class="cls-14" d="M572.44,507.22l-8.77-9.11a11.09,11.09,0,0,0-2.81,5c-.25,1.08-.53,3.9-.53,3.9l-3.41,6.81a1,1,0,0,0-.08.41,1,1,0,0,0,1,1h2.45v3.62c0,2.76,1.09,4.14,2.69,4.74l9.42-2.79V507.22Zm-8,2.22a1.53,1.53,0,1,1,1.52-1.52A1.53,1.53,0,0,1,564.45,509.44Z" transform="translate(-1 -1)"/><path class="cls-14" d="M605.66,513.54l-52.45,15.52,2.46,7.69,50-14.13c0-3.54,0-6.77,0-9.08Z" transform="translate(-1 -1)"/><path class="cls-14" d="M556.21,525.63a21.49,21.49,0,0,1,1.65-33.56l-1.83-1.9a24.1,24.1,0,0,0-2.72,36.32Z" transform="translate(-1 -1)"/><path class="cls-14" d="M583.24,510.78a3.35,3.35,0,1,0-3.34-3.34A3.35,3.35,0,0,0,583.24,510.78Z" transform="translate(-1 -1)"/><path class="cls-14" d="M605.66,511v-1a30.56,30.56,0,0,0-49.8-23.58l0,0,19.06,19.8v13.87Zm-22.42-8.73a5.17,5.17,0,0,1,2.8.83l3.41-3.42,1.3,1.29-3.38,3.38a5.11,5.11,0,0,1,1,3.09,5.17,5.17,0,1,1-5.17-5.17Z" transform="translate(-1 -1)"/><path class="cls-14" d="M586.94,534.51c7.68,0,14.71,4.53,18.74,11.81h0s0-11.2,0-21.17l-49.31,13.94c-1.71,2.58-3,5.19-4.6,7.23H568.2c4.11-7.4,11.11-11.81,18.74-11.81Z" transform="translate(-1 -1)"/><path class="cls-14" d="M586.94,537c-6.28,0-12.1,3.45-15.82,9.3h31.65C599.1,540.55,593.26,537,586.94,537Z" transform="translate(-1 -1)"/><path d="M615.69,516c1,0-7-23-7-23l-5,6.79-2,9.21,1,9,5,7,9-3Z" transform="translate(-1 -1)"/><path class="cls-14" d="M626.44,507.22l-8.77-9.11a11.09,11.09,0,0,0-2.81,5c-.25,1.08-.53,3.9-.53,3.9l-3.41,6.81a1,1,0,0,0-.08.41,1,1,0,0,0,1,1h2.45v3.62c0,2.76,1.09,4.14,2.69,4.74l9.42-2.79V507.22Zm-8,2.22a1.53,1.53,0,1,1,1.52-1.52A1.53,1.53,0,0,1,618.45,509.44Z" transform="translate(-1 -1)"/><path class="cls-14" d="M659.66,513.54l-52.45,15.52,2.46,7.69,50-14.13c0-3.54,0-6.77,0-9.08Z" transform="translate(-1 -1)"/><path class="cls-14" d="M610.21,525.63a21.49,21.49,0,0,1,1.65-33.56l-1.83-1.9a24.1,24.1,0,0,0-2.72,36.32Z" transform="translate(-1 -1)"/><path class="cls-14" d="M637.24,510.78a3.35,3.35,0,1,0-3.34-3.34A3.35,3.35,0,0,0,637.24,510.78Z" transform="translate(-1 -1)"/><path class="cls-14" d="M659.66,511v-1a30.56,30.56,0,0,0-49.8-23.58l0,0,19.06,19.8v13.87Zm-22.42-8.73a5.17,5.17,0,0,1,2.8.83l3.41-3.42,1.3,1.29-3.38,3.38a5.11,5.11,0,0,1,1,3.09,5.17,5.17,0,1,1-5.17-5.17Z" transform="translate(-1 -1)"/><path class="cls-14" d="M640.94,534.51c7.68,0,14.71,4.53,18.74,11.81h0s0-11.2,0-21.17l-49.31,13.94c-1.71,2.58-3,5.19-4.6,7.23H622.2c4.11-7.4,11.11-11.81,18.74-11.81Z" transform="translate(-1 -1)"/><path class="cls-14" d="M640.94,537c-6.28,0-12.1,3.45-15.82,9.3h31.65C653.1,540.55,647.26,537,640.94,537Z" transform="translate(-1 -1)"/><path class="cls-14" d="M728.44,507.22l-8.77-9.11a11.09,11.09,0,0,0-2.81,5c-.25,1.08-.53,3.9-.53,3.9l-3.41,6.81a1,1,0,0,0-.08.41,1,1,0,0,0,1,1h2.45v3.62c0,2.76,1.09,4.14,2.69,4.74l9.42-2.79V507.22Zm-8,2.22a1.53,1.53,0,1,1,1.52-1.52A1.53,1.53,0,0,1,720.45,509.44Z" transform="translate(-1 -1)"/><path class="cls-14" d="M761.66,513.54l-52.45,15.52,2.46,7.69,50-14.13c0-3.54,0-6.77,0-9.08Z" transform="translate(-1 -1)"/><path class="cls-14" d="M712.21,525.63a21.49,21.49,0,0,1,1.65-33.56l-1.83-1.9a24.1,24.1,0,0,0-2.72,36.32Z" transform="translate(-1 -1)"/><path class="cls-14" d="M739.24,510.78a3.35,3.35,0,1,0-3.34-3.34A3.35,3.35,0,0,0,739.24,510.78Z" transform="translate(-1 -1)"/><path class="cls-14" d="M761.66,511v-1a30.56,30.56,0,0,0-49.8-23.58l0,0,19.06,19.8v13.87Zm-22.42-8.73a5.17,5.17,0,0,1,2.8.83l3.41-3.42,1.3,1.29-3.38,3.38a5.11,5.11,0,0,1,1,3.09,5.17,5.17,0,1,1-5.17-5.17Z" transform="translate(-1 -1)"/><path class="cls-14" d="M742.94,534.51c7.68,0,14.71,4.53,18.74,11.81h0s0-11.2,0-21.17l-49.31,13.94c-1.71,2.58-3,5.19-4.6,7.23H724.2c4.11-7.4,11.11-11.81,18.74-11.81Z" transform="translate(-1 -1)"/><path class="cls-14" d="M742.94,537c-6.28,0-12.1,3.45-15.82,9.3h31.65C755.1,540.55,749.26,537,742.94,537Z" transform="translate(-1 -1)"/><text class="cls-15" transform="translate(704.63 561.4)">A<tspan class="cls-13" x="7.31" y="0">polo 14</tspan></text><path d="M771.69,516c1,0-7-23-7-23l-5,6.79-2,9.21,1,9,5,7,9-3Z" transform="translate(-1 -1)"/><path class="cls-14" d="M782.44,507.22l-8.77-9.11a11.09,11.09,0,0,0-2.81,5c-.25,1.08-.53,3.9-.53,3.9l-3.41,6.81a1,1,0,0,0-.08.41,1,1,0,0,0,1,1h2.45v3.62c0,2.76,1.09,4.14,2.69,4.74l9.42-2.79V507.22Zm-8,2.22a1.53,1.53,0,1,1,1.52-1.52A1.53,1.53,0,0,1,774.45,509.44Z" transform="translate(-1 -1)"/><path class="cls-14" d="M815.66,513.54l-52.45,15.52,2.46,7.69,50-14.13c0-3.54,0-6.77,0-9.08Z" transform="translate(-1 -1)"/><path class="cls-14" d="M766.21,525.63a21.49,21.49,0,0,1,1.65-33.56l-1.83-1.9a24.1,24.1,0,0,0-2.72,36.32Z" transform="translate(-1 -1)"/><path class="cls-14" d="M793.24,510.78a3.35,3.35,0,1,0-3.34-3.34A3.35,3.35,0,0,0,793.24,510.78Z" transform="translate(-1 -1)"/><path class="cls-14" d="M815.66,511v-1a30.56,30.56,0,0,0-49.8-23.58l0,0,19.06,19.8v13.87Zm-22.42-8.73a5.17,5.17,0,0,1,2.8.83l3.41-3.42,1.3,1.29-3.38,3.38a5.11,5.11,0,0,1,1,3.09,5.17,5.17,0,1,1-5.17-5.17Z" transform="translate(-1 -1)"/><path class="cls-14" d="M796.94,534.51c7.68,0,14.71,4.53,18.74,11.81h0s0-11.2,0-21.17l-49.31,13.94c-1.71,2.58-3,5.19-4.6,7.23H778.2c4.11-7.4,11.11-11.81,18.74-11.81Z" transform="translate(-1 -1)"/><path class="cls-14" d="M796.94,537c-6.28,0-12.1,3.45-15.82,9.3h31.65C809.1,540.55,803.26,537,796.94,537Z" transform="translate(-1 -1)"/><path d="M825.69,516c1,0-7-23-7-23l-5,6.79-2,9.21,1,9,5,7,9-3Z" transform="translate(-1 -1)"/><path class="cls-14" d="M836.44,507.22l-8.77-9.11a11.09,11.09,0,0,0-2.81,5c-.25,1.08-.53,3.9-.53,3.9l-3.41,6.81a1,1,0,0,0-.08.41,1,1,0,0,0,1,1h2.45v3.62c0,2.76,1.09,4.14,2.69,4.74l9.42-2.79V507.22Zm-8,2.22a1.53,1.53,0,1,1,1.52-1.52A1.53,1.53,0,0,1,828.45,509.44Z" transform="translate(-1 -1)"/><path class="cls-14" d="M869.66,513.54l-52.45,15.52,2.46,7.69,50-14.13c0-3.54,0-6.77,0-9.08Z" transform="translate(-1 -1)"/><path class="cls-14" d="M820.21,525.63a21.49,21.49,0,0,1,1.65-33.56l-1.83-1.9a24.1,24.1,0,0,0-2.72,36.32Z" transform="translate(-1 -1)"/><path class="cls-14" d="M847.24,510.78a3.35,3.35,0,1,0-3.34-3.34A3.35,3.35,0,0,0,847.24,510.78Z" transform="translate(-1 -1)"/><path class="cls-14" d="M869.66,511v-1a30.56,30.56,0,0,0-49.8-23.58l0,0,19.06,19.8v13.87Zm-22.42-8.73a5.17,5.17,0,0,1,2.8.83l3.41-3.42,1.3,1.29-3.38,3.38a5.11,5.11,0,0,1,1,3.09,5.17,5.17,0,1,1-5.17-5.17Z" transform="translate(-1 -1)"/><path class="cls-14" d="M850.94,534.51c7.68,0,14.71,4.53,18.74,11.81h0s0-11.2,0-21.17l-49.31,13.94c-1.71,2.58-3,5.19-4.6,7.23H832.2c4.11-7.4,11.11-11.81,18.74-11.81Z" transform="translate(-1 -1)"/><path class="cls-14" d="M850.94,537c-6.28,0-12.1,3.45-15.82,9.3h31.65C863.1,540.55,857.26,537,850.94,537Z" transform="translate(-1 -1)"/><g class="cls-17"><path class="cls-18" d="M518.44,644.22l-8.77-9.11a11.09,11.09,0,0,0-2.81,5c-.25,1.08-.53,3.9-.53,3.9l-3.41,6.81a1,1,0,0,0-.08.41,1,1,0,0,0,1,1h2.45v3.62c0,2.76,1.09,4.14,2.69,4.74l9.42-2.79V644.22Zm-8,2.22a1.53,1.53,0,1,1,1.52-1.52A1.53,1.53,0,0,1,510.45,646.44Z" transform="translate(-1 -1)"/><path class="cls-18" d="M551.66,650.54l-52.45,15.52,2.46,7.69,50-14.13c0-3.54,0-6.77,0-9.08Z" transform="translate(-1 -1)"/><path class="cls-18" d="M502.21,662.63a21.49,21.49,0,0,1,1.65-33.56l-1.83-1.9a24.1,24.1,0,0,0-2.72,36.32Z" transform="translate(-1 -1)"/><path class="cls-18" d="M529.24,647.78a3.35,3.35,0,1,0-3.34-3.34A3.35,3.35,0,0,0,529.24,647.78Z" transform="translate(-1 -1)"/><path class="cls-18" d="M551.66,648v-1a30.56,30.56,0,0,0-49.8-23.58l0,0,19.06,19.8v13.87Zm-22.42-8.73a5.17,5.17,0,0,1,2.8.83l3.41-3.42,1.3,1.29-3.38,3.38a5.11,5.11,0,0,1,1,3.09,5.17,5.17,0,1,1-5.17-5.17Z" transform="translate(-1 -1)"/><path class="cls-18" d="M532.94,671.51c7.68,0,14.71,4.53,18.74,11.81h0s0-11.2,0-21.17l-49.31,13.94c-1.71,2.58-3,5.19-4.6,7.23H514.2c4.11-7.4,11.11-11.81,18.74-11.81Z" transform="translate(-1 -1)"/><path class="cls-18" d="M532.94,674c-6.28,0-12.1,3.45-15.82,9.3h31.65C545.1,677.55,539.26,674,532.94,674Z" transform="translate(-1 -1)"/></g><text class="cls-15" transform="translate(495.63 698.4)">A<tspan class="cls-13" x="7.31" y="0">polo 16</tspan></text><path d="M561.69,653c1,0-7-23-7-23l-5,6.79-2,9.21,1,9,5,7,9-3Z" transform="translate(-1 -1)"/><path class="cls-14" d="M572.44,644.22l-8.77-9.11a11.09,11.09,0,0,0-2.81,5c-.25,1.08-.53,3.9-.53,3.9l-3.41,6.81a1,1,0,0,0-.08.41,1,1,0,0,0,1,1h2.45v3.62c0,2.76,1.09,4.14,2.69,4.74l9.42-2.79V644.22Zm-8,2.22a1.53,1.53,0,1,1,1.52-1.52A1.53,1.53,0,0,1,564.45,646.44Z" transform="translate(-1 -1)"/><path class="cls-14" d="M605.66,650.54l-52.45,15.52,2.46,7.69,50-14.13c0-3.54,0-6.77,0-9.08Z" transform="translate(-1 -1)"/><path class="cls-14" d="M556.21,662.63a21.49,21.49,0,0,1,1.65-33.56l-1.83-1.9a24.1,24.1,0,0,0-2.72,36.32Z" transform="translate(-1 -1)"/><path class="cls-14" d="M583.24,647.78a3.35,3.35,0,1,0-3.34-3.34A3.35,3.35,0,0,0,583.24,647.78Z" transform="translate(-1 -1)"/><path class="cls-14" d="M605.66,648v-1a30.56,30.56,0,0,0-49.8-23.58l0,0,19.06,19.8v13.87Zm-22.42-8.73a5.17,5.17,0,0,1,2.8.83l3.41-3.42,1.3,1.29-3.38,3.38a5.11,5.11,0,0,1,1,3.09,5.17,5.17,0,1,1-5.17-5.17Z" transform="translate(-1 -1)"/><path class="cls-14" d="M586.94,671.51c7.68,0,14.71,4.53,18.74,11.81h0s0-11.2,0-21.17l-49.31,13.94c-1.71,2.58-3,5.19-4.6,7.23H568.2c4.11-7.4,11.11-11.81,18.74-11.81Z" transform="translate(-1 -1)"/><path class="cls-14" d="M586.94,674c-6.28,0-12.1,3.45-15.82,9.3h31.65C599.1,677.55,593.26,674,586.94,674Z" transform="translate(-1 -1)"/><path d="M615.69,653c1,0-7-23-7-23l-5,6.79-2,9.21,1,9,5,7,9-3Z" transform="translate(-1 -1)"/><path class="cls-14" d="M626.44,644.22l-8.77-9.11a11.09,11.09,0,0,0-2.81,5c-.25,1.08-.53,3.9-.53,3.9l-3.41,6.81a1,1,0,0,0-.08.41,1,1,0,0,0,1,1h2.45v3.62c0,2.76,1.09,4.14,2.69,4.74l9.42-2.79V644.22Zm-8,2.22a1.53,1.53,0,1,1,1.52-1.52A1.53,1.53,0,0,1,618.45,646.44Z" transform="translate(-1 -1)"/><path class="cls-14" d="M659.66,650.54l-52.45,15.52,2.46,7.69,50-14.13c0-3.54,0-6.77,0-9.08Z" transform="translate(-1 -1)"/><path class="cls-14" d="M610.21,662.63a21.49,21.49,0,0,1,1.65-33.56l-1.83-1.9a24.1,24.1,0,0,0-2.72,36.32Z" transform="translate(-1 -1)"/><path class="cls-14" d="M637.24,647.78a3.35,3.35,0,1,0-3.34-3.34A3.35,3.35,0,0,0,637.24,647.78Z" transform="translate(-1 -1)"/><path class="cls-14" d="M659.66,648v-1a30.56,30.56,0,0,0-49.8-23.58l0,0,19.06,19.8v13.87Zm-22.42-8.73a5.17,5.17,0,0,1,2.8.83l3.41-3.42,1.3,1.29-3.38,3.38a5.11,5.11,0,0,1,1,3.09,5.17,5.17,0,1,1-5.17-5.17Z" transform="translate(-1 -1)"/><path class="cls-14" d="M640.94,671.51c7.68,0,14.71,4.53,18.74,11.81h0s0-11.2,0-21.17l-49.31,13.94c-1.71,2.58-3,5.19-4.6,7.23H622.2c4.11-7.4,11.11-11.81,18.74-11.81Z" transform="translate(-1 -1)"/><path class="cls-14" d="M640.94,674c-6.28,0-12.1,3.45-15.82,9.3h31.65C653.1,677.55,647.26,674,640.94,674Z" transform="translate(-1 -1)"/><g class="cls-17"><path class="cls-18" d="M728.44,644.22l-8.77-9.11a11.09,11.09,0,0,0-2.81,5c-.25,1.08-.53,3.9-.53,3.9l-3.41,6.81a1,1,0,0,0-.08.41,1,1,0,0,0,1,1h2.45v3.62c0,2.76,1.09,4.14,2.69,4.74l9.42-2.79V644.22Zm-8,2.22a1.53,1.53,0,1,1,1.52-1.52A1.53,1.53,0,0,1,720.45,646.44Z" transform="translate(-1 -1)"/><path class="cls-18" d="M761.66,650.54l-52.45,15.52,2.46,7.69,50-14.13c0-3.54,0-6.77,0-9.08Z" transform="translate(-1 -1)"/><path class="cls-18" d="M712.21,662.63a21.49,21.49,0,0,1,1.65-33.56l-1.83-1.9a24.1,24.1,0,0,0-2.72,36.32Z" transform="translate(-1 -1)"/><path class="cls-18" d="M739.24,647.78a3.35,3.35,0,1,0-3.34-3.34A3.35,3.35,0,0,0,739.24,647.78Z" transform="translate(-1 -1)"/><path class="cls-18" d="M761.66,648v-1a30.56,30.56,0,0,0-49.8-23.58l0,0,19.06,19.8v13.87Zm-22.42-8.73a5.17,5.17,0,0,1,2.8.83l3.41-3.42,1.3,1.29-3.38,3.38a5.11,5.11,0,0,1,1,3.09,5.17,5.17,0,1,1-5.17-5.17Z" transform="translate(-1 -1)"/><path class="cls-18" d="M742.94,671.51c7.68,0,14.71,4.53,18.74,11.81h0s0-11.2,0-21.17l-49.31,13.94c-1.71,2.58-3,5.19-4.6,7.23H724.2c4.11-7.4,11.11-11.81,18.74-11.81Z" transform="translate(-1 -1)"/><path class="cls-18" d="M742.94,674c-6.28,0-12.1,3.45-15.82,9.3h31.65C755.1,677.55,749.26,674,742.94,674Z" transform="translate(-1 -1)"/></g><text class="cls-15" transform="translate(704.63 698.4)">A<tspan class="cls-13" x="7.31" y="0">polo 17</tspan></text><path d="M771.69,653c1,0-7-23-7-23l-5,6.79-2,9.21,1,9,5,7,9-3Z" transform="translate(-1 -1)"/><path class="cls-14" d="M782.44,644.22l-8.77-9.11a11.09,11.09,0,0,0-2.81,5c-.25,1.08-.53,3.9-.53,3.9l-3.41,6.81a1,1,0,0,0-.08.41,1,1,0,0,0,1,1h2.45v3.62c0,2.76,1.09,4.14,2.69,4.74l9.42-2.79V644.22Zm-8,2.22a1.53,1.53,0,1,1,1.52-1.52A1.53,1.53,0,0,1,774.45,646.44Z" transform="translate(-1 -1)"/><path class="cls-14" d="M815.66,650.54l-52.45,15.52,2.46,7.69,50-14.13c0-3.54,0-6.77,0-9.08Z" transform="translate(-1 -1)"/><path class="cls-14" d="M766.21,662.63a21.49,21.49,0,0,1,1.65-33.56l-1.83-1.9a24.1,24.1,0,0,0-2.72,36.32Z" transform="translate(-1 -1)"/><path class="cls-14" d="M793.24,647.78a3.35,3.35,0,1,0-3.34-3.34A3.35,3.35,0,0,0,793.24,647.78Z" transform="translate(-1 -1)"/><path class="cls-14" d="M815.66,648v-1a30.56,30.56,0,0,0-49.8-23.58l0,0,19.06,19.8v13.87Zm-22.42-8.73a5.17,5.17,0,0,1,2.8.83l3.41-3.42,1.3,1.29-3.38,3.38a5.11,5.11,0,0,1,1,3.09,5.17,5.17,0,1,1-5.17-5.17Z" transform="translate(-1 -1)"/><path class="cls-14" d="M796.94,671.51c7.68,0,14.71,4.53,18.74,11.81h0s0-11.2,0-21.17l-49.31,13.94c-1.71,2.58-3,5.19-4.6,7.23H778.2c4.11-7.4,11.11-11.81,18.74-11.81Z" transform="translate(-1 -1)"/><path class="cls-14" d="M796.94,674c-6.28,0-12.1,3.45-15.82,9.3h31.65C809.1,677.55,803.26,674,796.94,674Z" transform="translate(-1 -1)"/><path d="M825.69,653c1,0-7-23-7-23l-5,6.79-2,9.21,1,9,5,7,9-3Z" transform="translate(-1 -1)"/><path class="cls-14" d="M836.44,644.22l-8.77-9.11a11.09,11.09,0,0,0-2.81,5c-.25,1.08-.53,3.9-.53,3.9l-3.41,6.81a1,1,0,0,0-.08.41,1,1,0,0,0,1,1h2.45v3.62c0,2.76,1.09,4.14,2.69,4.74l9.42-2.79V644.22Zm-8,2.22a1.53,1.53,0,1,1,1.52-1.52A1.53,1.53,0,0,1,828.45,646.44Z" transform="translate(-1 -1)"/><path class="cls-14" d="M869.66,650.54l-52.45,15.52,2.46,7.69,50-14.13c0-3.54,0-6.77,0-9.08Z" transform="translate(-1 -1)"/><path class="cls-14" d="M820.21,662.63a21.49,21.49,0,0,1,1.65-33.56l-1.83-1.9a24.1,24.1,0,0,0-2.72,36.32Z" transform="translate(-1 -1)"/><path class="cls-14" d="M847.24,647.78a3.35,3.35,0,1,0-3.34-3.34A3.35,3.35,0,0,0,847.24,647.78Z" transform="translate(-1 -1)"/><path class="cls-14" d="M869.66,648v-1a30.56,30.56,0,0,0-49.8-23.58l0,0,19.06,19.8v13.87Zm-22.42-8.73a5.17,5.17,0,0,1,2.8.83l3.41-3.42,1.3,1.29-3.38,3.38a5.11,5.11,0,0,1,1,3.09,5.17,5.17,0,1,1-5.17-5.17Z" transform="translate(-1 -1)"/><path class="cls-14" d="M850.94,671.51c7.68,0,14.71,4.53,18.74,11.81h0s0-11.2,0-21.17l-49.31,13.94c-1.71,2.58-3,5.19-4.6,7.23H832.2c4.11-7.4,11.11-11.81,18.74-11.81Z" transform="translate(-1 -1)"/><path class="cls-14" d="M850.94,674c-6.28,0-12.1,3.45-15.82,9.3h31.65C863.1,677.55,857.26,674,850.94,674Z" transform="translate(-1 -1)"/><text class="cls-19" transform="translate(100.94 90.82)">No sob<tspan class="cls-20" x="41.06" y="0">r</tspan><tspan x="45.5" y="0">evivie</tspan><tspan class="cls-21" x="79.55" y="0">r</tspan><tspan x="83.98" y="0">on</tspan></text><rect class="cls-11" x="65.13" y="75" width="23" height="23"/><text class="cls-19" transform="translate(100.94 135.21)"><tspan class="cls-22">S</tspan><tspan x="6.99" y="0">ob</tspan><tspan class="cls-20" x="22.64" y="0">r</tspan><tspan x="27.08" y="0">evivie</tspan><tspan class="cls-21" x="61.12" y="0">r</tspan><tspan x="65.56" y="0">on</tspan></text><rect class="cls-14" x="65.13" y="118.56" width="23" height="23"/><text class="cls-19" transform="translate(100.94 178.01)"><tspan class="cls-23">V</tspan><tspan x="7.35" y="0">olvie</tspan><tspan class="cls-21" x="35.36" y="0">r</tspan><tspan x="39.8" y="0">on a viajar</tspan></text><rect class="cls-16" x="65.13" y="162.19" width="23" height="23"/><text class="cls-19" transform="translate(100.44 211.32)"><tspan class="cls-24">D</tspan><tspan x="9.38" y="0">ónde </tspan><tspan class="cls-20" x="42.71" y="0">v</tspan><tspan x="49.31" y="0">olvie</tspan><tspan class="cls-21" x="77.32" y="0">r</tspan><tspan class="cls-25" x="81.76" y="0">on </tspan><tspan x="0" y="16.8">a viajar</tspan></text><rect class="cls-18" x="65.13" y="203.5" width="23" height="23"/></g></svg>